<svg width="54" height="51" viewBox="0 0 54 51" fill="none" xmlns="http://www.w3.org/2000/svg">
<path fill-rule="evenodd" clip-rule="evenodd" d="M44.4586 42.0549L30.8893 50.3379C28.242 44.7089 27.3178 40.2927 28.1165 37.0892C28.9152 33.8857 36.8272 23.7062 51.8526 6.55055L53.9882 7.08303C47.4361 17.1156 43.4564 24.9539 42.0491 30.5982C41.466 32.9372 42.2691 36.7561 44.4586 42.0549ZM17.4961 35.4944L3.92676 43.7774C1.27947 38.1484 0.355179 33.7322 1.1539 30.5287C1.95262 27.3252 9.86466 17.1457 24.89 -0.00994678L27.0257 0.522532C20.4735 10.5551 16.4938 18.3934 15.0866 24.0377C14.5034 26.3767 15.3065 30.1956 17.4961 35.4944Z" fill="#338CF5"/>
</svg>
