<svg width="24" height="24" viewBox="0 0 24 24" fill="none" xmlns="http://www.w3.org/2000/svg">
<path d="M17.973 3.69101C16.5123 2.04195 14.4352 1.06947 12.2332 1.00358C10.0312 0.937688 7.89976 1.78424 6.34302 3.34301" stroke="#99C5FA" stroke-width="2" stroke-linecap="square"/>
<path d="M14.978 6.35302C14.2517 5.52551 13.2148 5.0363 12.1143 5.00199C11.0138 4.96769 9.9484 5.39136 9.172 6.17202" stroke="#99C5FA" stroke-width="2" stroke-linecap="square"/>
<path d="M1 6C4.31371 6 7 8.68629 7 12V13.04L8.5 16.5L7 17V19C7 20.1046 6.10457 21 5 21H3V23" stroke="white" stroke-width="2" stroke-linecap="square"/>
<path d="M23 6C19.6863 6 17 8.68629 17 12V13.04L15.5 16.5L17 17V19C17 20.1046 17.8954 21 19 21H21V23" stroke="white" stroke-width="2" stroke-linecap="square"/>
</svg>
