<svg width="16" height="14" viewBox="0 0 16 14" fill="none" xmlns="http://www.w3.org/2000/svg">
<path d="M15.9683 0.276016C15.9427 0.155767 15.8538 0.058882 15.7363 0.0230158C15.526 -0.0189056 15.3084 -0.0033598 15.1063 0.0680158C15.1063 0.0680158 1.08725 5.10602 0.286252 5.66402C0.114252 5.78502 0.056252 5.85402 0.027252 5.93602C-0.110748 6.33602 0.320252 6.50902 0.320252 6.50902L3.93325 7.68602C3.99425 7.69702 4.05701 7.69325 4.11625 7.67502C4.93825 7.15602 12.3863 2.45302 12.8163 2.29502C12.8843 2.27502 12.9343 2.29502 12.9163 2.34402C12.7443 2.94402 6.31025 8.66302 6.27525 8.69802C6.2406 8.72696 6.2223 8.77104 6.22625 8.81602L5.88925 12.344C5.88925 12.344 5.74725 13.444 6.84525 12.344C7.62425 11.565 8.37225 10.919 8.74525 10.606C9.98725 11.464 11.3243 12.412 11.9013 12.906C12.0965 13.0962 12.3609 13.1984 12.6333 13.189C12.973 13.147 13.2516 12.8995 13.3333 12.567C13.3333 12.567 15.8943 2.29202 15.9793 0.909016C15.9873 0.774016 16.0003 0.692016 16.0003 0.592016C16.0039 0.48572 15.9931 0.37942 15.9683 0.276016Z" fill="#666666"/>
</svg>
